# xmcd
#
# Track frame offsets: 
#        150
#        17408
#        31865
#        50085
#        80027
#        98321
#        136862
#        160922
#        179470
#        197557
#        215970
#        234127
#        252565
#        270601
#        298570
#        318595
#
# Disc length: 4518 seconds
#
# Revision: 0
# Processed by: cddbd v1.5.2PL0 Copyright (c) Steve Scherf et al.
# Submitted via: ExactAudioCopy v0.95b3
#
DISCID=dd11a410
DTITLE=War  - Anthology -  1970 - 1974 - Disc Two  FLAC
DYEAR=1900
DGENRE=
TTITLE0=Why Can't We Be Friends?
TTITLE1=Low Rider
TTITLE2=Don't Let No One Get You Down
TTITLE3=Summer
TTITLE4=L.A. Sunshine
TTITLE5=River Niger
TTITLE6=Galaxy
TTITLE7=Youngblood (Livin' In The Streets)
TTITLE8=This Funky Music Makes You Feel Good
TTITLE9=The Music Band
TTITLE10=Outlaw
TTITLE11=You Got The Power
TTITLE12=Cinco De Mayo
TTITLE13=Life (Is So Strange)
TTITLE14=Don't Let No One Get You Down ('92 Version) - Featuring Hispa
TTITLE14=nic M.C.'s
TTITLE15=Peace Sign
EXTD=
EXTT0=
EXTT1=
EXTT2=
EXTT3=
EXTT4=
EXTT5=
EXTT6=
EXTT7=
EXTT8=
EXTT9=
EXTT10=
EXTT11=
EXTT12=
EXTT13=
EXTT14=
EXTT15=
PLAYORDER=
